<?xml version="1.0" encoding="utf-8"?>
<!-- Generator: Adobe Illustrator 24.2.1, SVG Export Plug-In . SVG Version: 6.00 Build 0)  -->
<svg version="1.1" id="Layer_1" xmlns="http://www.w3.org/2000/svg" xmlns:xlink="http://www.w3.org/1999/xlink" x="0px" y="0px"
	 viewBox="0 0 32 32" style="enable-background:new 0 0 32 32;" xml:space="preserve">
<style type="text/css">
	.st0{fill:#764A31;}
	.st1{fill:#86C74E;}
	.st2{fill:#6E9A48;}
	.st3{fill:#6E9B33;}
	.st4{fill:#5F3B26;}
	.st5{fill:#548632;}
	.st6{fill:#633915;}
	.st7{fill:#835436;}
	.st8{fill:#633815;}
	.st9{fill:#878787;}
	.st10{fill:#7B563B;}
	.st11{fill:#28A745;}
</style>
<g>
	<rect x="0" y="24" class="st0" width="12" height="8"/>
	<rect x="0" y="20" class="st1" width="12" height="1"/>
	<rect y="21" class="st2" width="12" height="1"/>
	<polygon class="st3" points="0,22 0,23 1,23 1,24 5,24 5,23 8,23 8,24 9,24 9,23 10,23 10,24 11,24 11,23 12,23 12,22 	"/>
	<polygon class="st4" points="5,25 4,25 4,26 3,26 3,25 2,25 1,25 1,26 2,26 2,27 3,27 4,27 5,27 5,26 6,26 6,25 	"/>
	<g>
		<polygon class="st5" points="11,23 11,24 10,24 10,23 9,23 9,24 8,24 8,25 12,25 12,24 12,23 		"/>
		<polygon class="st5" points="5,23 5,24 1,24 1,23 0,23 0,24 0,25 2,25 2,26 3,26 4,26 4,25 6,25 6,24 7,24 8,24 8,23 		"/>
	</g>
	<rect x="6" y="24" class="st6" width="1" height="1"/>
	<rect x="7" y="24" class="st4" width="1" height="1"/>
	<rect x="8" y="25" class="st6" width="1" height="1"/>
	<polygon class="st4" points="10,25 9,25 9,26 10,26 11,26 11,25 	"/>
	<rect x="11" y="25" class="st6" width="1" height="1"/>
	<rect y="25" class="st6" width="1" height="1"/>
	<rect x="1" y="27" class="st7" width="1" height="1"/>
	<rect y="30" class="st8" width="1" height="1"/>
	<rect x="2" y="30" class="st9" width="1" height="1"/>
	<rect x="5" y="30" class="st10" width="1" height="1"/>
	<rect x="7" y="31" class="st8" width="1" height="1"/>
	<rect x="4" y="28" class="st8" width="1" height="1"/>
	<rect x="6" y="27" class="st9" width="1" height="1"/>
	<rect x="7" y="28" class="st7" width="1" height="1"/>
	<rect x="8" y="26" class="st10" width="1" height="1"/>
	<rect x="11" y="26" class="st7" width="1" height="1"/>
	<rect x="10" y="27" class="st6" width="1" height="1"/>
	<rect x="10" y="30" class="st7" width="1" height="1"/>
</g>
<polygon class="st11" points="31,8 31,7 30,7 30,6 29,6 29,5 28,5 28,4 27,4 27,3 26,3 26,2 25,2 25,1 24,1 24,0 3,0 0,0 0,18 3,18 
	3,3 19,3 19,13 27,13 29,13 29,29 14,29 14,32 29,32 32,32 32,13 32,8 "/>
</svg>
