<?xml version="1.0" encoding="utf-8"?>
<!-- Generator: Adobe Illustrator 25.4.1, SVG Export Plug-In . SVG Version: 6.00 Build 0)  -->
<svg version="1.1" id="Layer_1" xmlns="http://www.w3.org/2000/svg" xmlns:xlink="http://www.w3.org/1999/xlink" x="0px" y="0px"
	 viewBox="0 0 16 16" style="enable-background:new 0 0 16 16;" xml:space="preserve">
<style type="text/css">
	.st0{fill:#7D7D7D;}
	.st1{fill:#818181;}
	.st2{fill:#828282;}
	.st3{fill:#B0B0B0;}
	.st4{fill:#7A7A7A;}
	.st5{fill:#7C7C7C;}
	.st6{fill:#7F7F7F;}
	.st7{fill:#B4B4B4;}
	.st8{fill:#A7A7A7;}
	.st9{fill:#8B8B8B;}
	.st10{fill:#7E7E7E;}
	.st11{fill:#A4A4A4;}
	.st12{fill:#878787;}
	.st13{fill:#888888;}
	.st14{fill:#B7B7B7;}
	.st15{fill:#AFAFAF;}
	.st16{fill:#AEAEAE;}
	.st17{fill:#A1A1A1;}
	.st18{fill:#A9A9A9;}
	.st19{fill:#838383;}
	.st20{fill:#BCBCBC;}
	.st21{fill:#B8B8B8;}
	.st22{fill:#6B6B6B;}
	.st23{fill:#A8A8A8;}
	.st24{fill:#8D8D8D;}
	.st25{fill:#BFBFBF;}
	.st26{fill:#BBBBBB;}
	.st27{fill:#ACACAC;}
	.st28{fill:#AAAAAA;}
	.st29{fill:#B5B5B5;}
	.st30{fill:#727272;}
	.st31{fill:#919191;}
	.st32{fill:#B9B9B9;}
	.st33{fill:#B2B2B2;}
	.st34{fill:#B3B3B3;}
	.st35{fill:#707070;}
	.st36{fill:#848484;}
	.st37{fill:#CACACA;}
	.st38{fill:#FFFFFF;}
	.st39{fill:#D8D8D8;}
	.st40{fill:#787878;}
	.st41{fill:#767676;}
	.st42{fill:#757575;}
	.st43{fill:#C5C5C5;}
	.st44{fill:#9E9E9E;}
	.st45{fill:#9F9F9F;}
	.st46{fill:#9A9A9A;}
	.st47{fill:#C4C4C4;}
	.st48{fill:#ADADAD;}
	.st49{fill:#B1B1B1;}
	.st50{fill:#717171;}
	.st51{fill:#898989;}
	.st52{fill:#6E6E6E;}
	.st53{fill:#808080;}
	.st54{fill:#737373;}
	.st55{fill:#A3A3A3;}
	.st56{fill:#A0A0A0;}
	.st57{fill:#858585;}
	.st58{fill:#747474;}
</style>
<g id="COG">
	<g>
		<rect x="5" class="st0" width="1" height="2"/>
		<rect x="7" y="13" class="st0" width="1" height="1"/>
		<rect x="13" y="5" class="st0" width="1" height="1"/>
		<rect x="11" y="4" class="st0" width="1" height="1"/>
		<rect x="12" y="2" class="st0" width="1" height="1"/>
	</g>
	<g>
		<rect x="1" y="3" class="st1" width="1" height="1"/>
		<rect x="4" y="14" class="st1" width="1" height="1"/>
		<rect x="14" y="5" class="st1" width="1" height="1"/>
		<rect x="6" class="st1" width="1" height="1"/>
	</g>
	<g>
		<rect x="7" class="st2" width="1" height="1"/>
		<rect x="9" y="3" class="st2" width="1" height="1"/>
	</g>
	<g>
		<rect x="7" y="10" class="st3" width="2" height="1"/>
		<rect x="6" y="1" class="st3" width="1" height="1"/>
		<rect x="11" y="5" class="st3" width="1" height="1"/>
		<rect x="10" y="8" class="st3" width="1" height="1"/>
		<rect x="6" y="9" class="st3" width="1" height="1"/>
	</g>
	<g>
		<rect x="6" y="12" class="st4" width="1" height="1"/>
		<rect x="7" y="1" class="st4" width="1" height="1"/>
		<rect y="9" class="st4" width="1" height="2"/>
		<rect x="13" y="10" class="st4" width="1" height="1"/>
		<rect x="12" y="5" class="st4" width="1" height="1"/>
	</g>
	<g>
		<rect x="11" y="1" class="st5" width="2" height="1"/>
		<rect x="13" y="8" class="st5" width="1" height="1"/>
	</g>
	<g>
		<rect x="5" y="2" class="st6" width="1" height="1"/>
		<rect x="8" y="14" class="st6" width="1" height="1"/>
	</g>
	<g>
		<rect x="3" y="4" class="st7" width="1" height="1"/>
		<rect x="6" y="2" class="st7" width="1" height="1"/>
		<rect x="11" y="10" class="st7" width="1" height="1"/>
		<rect x="9" y="10" class="st7" width="1" height="1"/>
	</g>
	<g>
		<rect x="7" y="2" class="st8" width="1" height="1"/>
		<rect x="9" y="12" class="st8" width="1" height="1"/>
		<rect x="13" y="11" class="st8" width="1" height="1"/>
		<polygon class="st8" points="12,6 12,8 13,8 13,7 14,7 14,6 		"/>
	</g>
	<g>
		<rect x="4" y="4" class="st9" width="1" height="1"/>
		<rect x="8" y="2" class="st9" width="1" height="1"/>
	</g>
	<g>
		<rect x="10" y="2" class="st10" width="1" height="1"/>
		<rect x="2" y="10" class="st10" width="1" height="1"/>
	</g>
	<g>
		<rect x="11" y="2" class="st11" width="1" height="1"/>
		<rect x="8" y="12" class="st11" width="1" height="1"/>
	</g>
	<rect x="2" y="3" class="st12" width="1" height="1"/>
	<rect x="5" y="3" class="st13" width="1" height="1"/>
	<g>
		<rect x="5" y="9" class="st14" width="1" height="1"/>
		<rect x="4" y="10" class="st14" width="1" height="1"/>
		<rect x="6" y="3" class="st14" width="1" height="1"/>
		<rect x="5" y="7" class="st14" width="1" height="1"/>
	</g>
	<g>
		<rect x="7" y="3" class="st15" width="1" height="1"/>
		<rect x="10" y="7" class="st15" width="1" height="1"/>
	</g>
	<g>
		<rect x="10" y="11" class="st16" width="1" height="1"/>
		<rect x="8" y="3" class="st16" width="1" height="1"/>
		<rect x="14" y="6" class="st16" width="1" height="1"/>
	</g>
	<g>
		<rect x="10" y="3" class="st17" width="1" height="1"/>
		<rect x="12" y="11" class="st17" width="1" height="1"/>
	</g>
	<rect x="11" y="3" class="st18" width="1" height="1"/>
	<rect x="1" y="4" class="st19" width="1" height="1"/>
	<g>
		<rect x="5" y="12" class="st20" width="1" height="1"/>
		<rect x="2" y="4" class="st20" width="1" height="1"/>
	</g>
	<g>
		<rect x="3" y="5" class="st21" width="1" height="1"/>
		<rect x="5" y="4" class="st21" width="1" height="1"/>
	</g>
	<g>
		<g>
			<rect x="5" y="10" class="st22" width="1" height="1"/>
		</g>
		<g>
			<rect x="5" y="5" class="st22" width="1" height="1"/>
		</g>
		<g>
			<rect x="4" y="6" class="st22" width="1" height="4"/>
		</g>
		<g>
			<rect x="6" y="4" class="st22" width="4" height="1"/>
		</g>
		<g>
			<rect x="6" y="11" class="st22" width="4" height="1"/>
		</g>
		<g>
			<rect x="10" y="5" class="st22" width="1" height="1"/>
		</g>
		<g>
			<rect x="7" y="9" class="st22" width="2" height="1"/>
		</g>
		<g>
			<rect x="9" y="7" class="st22" width="1" height="2"/>
		</g>
		<g>
			<rect x="11" y="6" class="st22" width="1" height="4"/>
		</g>
		<g>
			<rect x="10" y="10" class="st22" width="1" height="1"/>
		</g>
		<g>
			<rect x="7" y="6" class="st22" width="2" height="1"/>
		</g>
		<g>
			<rect x="6" y="7" class="st22" width="1" height="2"/>
		</g>
	</g>
	<g>
		<rect x="2" y="9" class="st23" width="1" height="1"/>
		<rect x="10" y="4" class="st23" width="1" height="1"/>
	</g>
	<g>
		<rect x="2" y="5" class="st24" width="1" height="1"/>
		<rect x="3" y="10" class="st24" width="1" height="1"/>
	</g>
	<g>
		<rect x="4" y="5" class="st25" width="1" height="1"/>
		<rect x="5" y="11" class="st25" width="1" height="1"/>
	</g>
	<g>
		<rect x="5" y="8" class="st26" width="1" height="1"/>
		<rect x="6" y="5" class="st26" width="1" height="1"/>
	</g>
	<rect x="7" y="5" class="st27" width="1" height="1"/>
	<g>
		<rect x="8" y="13" class="st28" width="1" height="1"/>
		<rect x="8" y="5" class="st28" width="1" height="1"/>
		<rect x="10" y="6" class="st28" width="1" height="1"/>
		<rect x="13" y="7" class="st28" width="1" height="1"/>
	</g>
	<g>
		<rect x="4" y="12" class="st29" width="1" height="1"/>
		<rect x="9" y="5" class="st29" width="1" height="1"/>
	</g>
	<rect x="15" y="5" class="st30" width="1" height="1"/>
	<rect x="3" y="6" class="st31" width="1" height="1"/>
	<rect x="5" y="6" class="st32" width="1" height="1"/>
	<g>
		<rect x="2" y="8" class="st33" width="1" height="1"/>
		<rect x="6" y="6" class="st33" width="1" height="1"/>
	</g>
	<g>
		<rect x="4" y="13" class="st34" width="1" height="1"/>
		<rect x="9" y="6" class="st34" width="1" height="1"/>
	</g>
	<rect x="15" y="6" class="st35" width="1" height="1"/>
	<g>
		<rect x="2" y="7" class="st36" width="1" height="1"/>
		<rect x="11" y="11" class="st36" width="1" height="1"/>
	</g>
	<rect x="3" y="7" class="st37" width="1" height="1"/>
	<rect x="7" y="7" class="st38" width="1" height="1"/>
	<g>
		<rect x="7" y="8" class="st39" width="1" height="1"/>
		<rect x="8" y="7" class="st39" width="1" height="1"/>
	</g>
	<g>
		<rect x="10" y="13" class="st40" width="1" height="2"/>
		<rect x="14" y="7" class="st40" width="2" height="1"/>
		<rect x="13" y="12" class="st40" width="1" height="1"/>
	</g>
	<g>
		<rect x="3" y="13" class="st41" width="1" height="1"/>
		<rect y="8" class="st41" width="1" height="1"/>
	</g>
	<rect x="1" y="8" class="st42" width="1" height="1"/>
	<rect x="3" y="8" class="st43" width="1" height="1"/>
	<rect x="8" y="8" class="st44" width="1" height="1"/>
	<g>
		<rect x="12" y="10" class="st45" width="1" height="1"/>
		<rect x="12" y="8" class="st45" width="1" height="1"/>
	</g>
	<rect x="1" y="9" class="st46" width="1" height="1"/>
	<rect x="3" y="9" class="st47" width="1" height="1"/>
	<g>
		<rect x="6" y="10" class="st48" width="1" height="1"/>
		<rect x="7" y="12" class="st48" width="1" height="1"/>
		<rect x="9" y="9" class="st48" width="1" height="1"/>
	</g>
	<rect x="10" y="9" class="st49" width="1" height="1"/>
	<g>
		<rect x="1" y="10" class="st50" width="1" height="1"/>
		<rect x="12" y="9" class="st50" width="1" height="1"/>
	</g>
	<rect x="4" y="11" class="st51" width="1" height="1"/>
	<rect x="14" y="11" class="st52" width="1" height="1"/>
	<g>
		<rect x="5" y="13" class="st53" width="1" height="1"/>
		<rect x="10" y="12" class="st53" width="1" height="1"/>
	</g>
	<g>
		<rect x="3" y="14" class="st54" width="1" height="1"/>
		<rect x="14" y="12" class="st54" width="1" height="1"/>
		<rect x="10" y="15" class="st54" width="1" height="1"/>
	</g>
	<rect x="9" y="13" class="st55" width="1" height="1"/>
	<rect x="9" y="14" class="st56" width="1" height="1"/>
	<rect x="8" y="15" class="st57" width="1" height="1"/>
	<rect x="9" y="15" class="st58" width="1" height="1"/>
</g>
</svg>
